<?xml version="1.0" encoding="UTF-8" standalone="no"?>
<!-- Created with Inkscape (http://www.inkscape.org/) -->

<svg
   width="134.13081mm"
   height="50.50547mm"
   viewBox="0 0 134.13081 50.505469"
   version="1.1"
   id="svg1"
   inkscape:version="1.4.2 (ebf0e940, 2025-05-08)"
   sodipodi:docname="dark_logo.svg"
   xmlns:inkscape="http://www.inkscape.org/namespaces/inkscape"
   xmlns:sodipodi="http://sodipodi.sourceforge.net/DTD/sodipodi-0.dtd"
   xmlns="http://www.w3.org/2000/svg"
   xmlns:svg="http://www.w3.org/2000/svg">
  <sodipodi:namedview
     id="namedview1"
     pagecolor="#ffffff"
     bordercolor="#000000"
     borderopacity="0.25"
     inkscape:showpageshadow="2"
     inkscape:pageopacity="0.0"
     inkscape:pagecheckerboard="0"
     inkscape:deskcolor="#d1d1d1"
     inkscape:document-units="mm"
     inkscape:zoom="2.1367163"
     inkscape:cx="257.40431"
     inkscape:cy="113.2579"
     inkscape:window-width="1920"
     inkscape:window-height="1147"
     inkscape:window-x="1710"
     inkscape:window-y="25"
     inkscape:window-maximized="0"
     inkscape:current-layer="layer1"
     showguides="true">
    <sodipodi:guide
       position="19.244409,-51.948934"
       orientation="1,0"
       id="guide1"
       inkscape:locked="false" />
  </sodipodi:namedview>
  <defs
     id="defs1">
    <filter
       id="neon-purple"
       x="-2.2666667"
       y="-2.2666667"
       width="5.5333333"
       height="5.5333333">
      <feGaussianBlur
         in="SourceGraphic"
         stdDeviation="2.5"
         result="blur1"
         id="feGaussianBlur4" />
      <feGaussianBlur
         in="SourceGraphic"
         stdDeviation="6"
         result="blur2"
         id="feGaussianBlur5" />
      <feColorMatrix
         in="blur2"
         type="matrix"
         values="0.6 0 0 0 0.3   0 0 0 0 0   1 0 0 0 1   0 0 0 0.6 0"
         result="glow2"
         id="feColorMatrix5" />
      <feMerge
         id="feMerge7">
        <feMergeNode
           in="glow2"
           id="feMergeNode5" />
        <feMergeNode
           in="blur1"
           id="feMergeNode6" />
        <feMergeNode
           in="SourceGraphic"
           id="feMergeNode7" />
      </feMerge>
    </filter>
    <filter
       id="filter4"
       x="-2.2666667"
       y="-3.396683"
       width="5.5333333"
       height="7.793366">
      <feGaussianBlur
         in="SourceGraphic"
         stdDeviation="2.5"
         result="blur1"
         id="feGaussianBlur1" />
      <feGaussianBlur
         in="SourceGraphic"
         stdDeviation="6"
         result="blur2"
         id="feGaussianBlur2" />
      <feColorMatrix
         in="blur2"
         type="matrix"
         values="0.6 0 0 0 0.3   0 0 0 0 0   1 0 0 0 1   0 0 0 0.6 0"
         result="glow2"
         id="feColorMatrix2" />
      <feMerge
         id="feMerge4">
        <feMergeNode
           in="glow2"
           id="feMergeNode2" />
        <feMergeNode
           in="blur1"
           id="feMergeNode3" />
        <feMergeNode
           in="SourceGraphic"
           id="feMergeNode4" />
      </feMerge>
    </filter>
    <filter
       id="filter10"
       x="-2.2666667"
       y="-3.396683"
       width="5.5333333"
       height="7.793366">
      <feGaussianBlur
         in="SourceGraphic"
         stdDeviation="2.5"
         result="blur1"
         id="feGaussianBlur6" />
      <feGaussianBlur
         in="SourceGraphic"
         stdDeviation="6"
         result="blur2"
         id="feGaussianBlur7" />
      <feColorMatrix
         in="blur2"
         type="matrix"
         values="0.6 0 0 0 0.3   0 0 0 0 0   1 0 0 0 1   0 0 0 0.6 0"
         result="glow2"
         id="feColorMatrix7" />
      <feMerge
         id="feMerge10">
        <feMergeNode
           in="glow2"
           id="feMergeNode8" />
        <feMergeNode
           in="blur1"
           id="feMergeNode9" />
        <feMergeNode
           in="SourceGraphic"
           id="feMergeNode10" />
      </feMerge>
    </filter>
    <filter
       id="filter13"
       x="-2.2666667"
       y="-3.396683"
       width="5.5333333"
       height="7.793366">
      <feGaussianBlur
         in="SourceGraphic"
         stdDeviation="2.5"
         result="blur1"
         id="feGaussianBlur10" />
      <feGaussianBlur
         in="SourceGraphic"
         stdDeviation="6"
         result="blur2"
         id="feGaussianBlur11" />
      <feColorMatrix
         in="blur2"
         type="matrix"
         values="0.6 0 0 0 0.3   0 0 0 0 0   1 0 0 0 1   0 0 0 0.6 0"
         result="glow2"
         id="feColorMatrix11" />
      <feMerge
         id="feMerge13">
        <feMergeNode
           in="glow2"
           id="feMergeNode11" />
        <feMergeNode
           in="blur1"
           id="feMergeNode12" />
        <feMergeNode
           in="SourceGraphic"
           id="feMergeNode13" />
      </feMerge>
    </filter>
    <filter
       id="neon-orange"
       x="-0.11736406"
       y="-2.1059127"
       width="1.2347281"
       height="5.2118254">
      <feGaussianBlur
         in="SourceGraphic"
         stdDeviation="2"
         result="blur1"
         id="feGaussianBlur13" />
      <feGaussianBlur
         in="SourceGraphic"
         stdDeviation="5"
         result="blur2"
         id="feGaussianBlur8" />
      <feColorMatrix
         in="blur2"
         type="matrix"
         values="1 0 0 0 1   0.3 0 0 0 0.1   0 0 0 0 0   0 0 0 0.7 0"
         result="glow2"
         id="feColorMatrix8" />
      <feMerge
         id="feMerge16">
        <feMergeNode
           in="glow2"
           id="feMergeNode14" />
        <feMergeNode
           in="blur1"
           id="feMergeNode15" />
        <feMergeNode
           in="SourceGraphic"
           id="feMergeNode16" />
      </feMerge>
    </filter>
    <marker
       inkscape:stockid="Arrow2Lend"
       orient="auto"
       refY="0"
       refX="0"
       id="Arrow2Lend"
       style="overflow:visible">
      <path
         id="path3622"
         style="font-size:12px;fill-rule:evenodd;stroke-width:0.625;stroke-linejoin:round"
         d="M 8.7185878,4.0337352 -2.2072895,0.01601326 8.7185884,-4.0017078 c -1.7454984,2.3720609 -1.7354408,5.6174519 -6e-7,8.035443 z"
         transform="matrix(-1.1,0,0,-1.1,-1.1,0)" />
    </marker>
    <marker
       inkscape:stockid="Arrow2Lend"
       orient="auto"
       refY="0"
       refX="0"
       id="marker1"
       style="overflow:visible">
      <path
         id="path1"
         style="font-size:12px;fill-rule:evenodd;stroke-width:0.625;stroke-linejoin:round"
         d="M 8.7185878,4.0337352 -2.2072895,0.01601326 8.7185884,-4.0017078 c -1.7454984,2.3720609 -1.7354408,5.6174519 -6e-7,8.035443 z"
         transform="matrix(-1.1,0,0,-1.1,-1.1,0)" />
    </marker>
    <filter
       inkscape:collect="always"
       style="color-interpolation-filters:sRGB"
       id="filter6"
       x="-0.1181577"
       y="-0.78524313"
       width="1.2363154"
       height="2.5704863">
      <feGaussianBlur
         inkscape:collect="always"
         stdDeviation="4.7376209"
         id="feGaussianBlur9" />
    </filter>
    <filter
       inkscape:collect="always"
       style="color-interpolation-filters:sRGB"
       id="filter9"
       x="-0.070731986"
       y="-0.47006363"
       width="1.141464"
       height="1.9401273">
      <feGaussianBlur
         inkscape:collect="always"
         stdDeviation="2.74409"
         id="feGaussianBlur12" />
    </filter>
    <filter
       inkscape:collect="always"
       style="color-interpolation-filters:sRGB"
       id="filter12"
       x="-0.03140534"
       y="-0.2087105"
       width="1.0628107"
       height="1.417421">
      <feGaussianBlur
         inkscape:collect="always"
         stdDeviation="1.2266965"
         id="feGaussianBlur14" />
    </filter>
    <filter
       inkscape:collect="always"
       style="color-interpolation-filters:sRGB"
       id="filter15"
       x="-0.042684551"
       y="-0.13034325"
       width="1.0765525"
       height="1.2455455">
      <feGaussianBlur
         inkscape:collect="always"
         stdDeviation="1.7621924"
         id="feGaussianBlur15" />
    </filter>
    <filter
       inkscape:collect="always"
       style="color-interpolation-filters:sRGB"
       id="filter17"
       x="-0.075295808"
       y="-0.22985098"
       width="1.1417749"
       height="1.4445624">
      <feGaussianBlur
         inkscape:collect="always"
         stdDeviation="3.4623275"
         id="feGaussianBlur17" />
    </filter>
    <filter
       inkscape:collect="always"
       style="color-interpolation-filters:sRGB"
       id="filter18"
       x="-0.012263586"
       y="-0.037518468"
       width="1.0157105"
       height="1.0598974">
      <feGaussianBlur
         inkscape:collect="always"
         stdDeviation="0.17623174"
         id="feGaussianBlur18" />
    </filter>
  </defs>
  <g
     inkscape:label="Layer 1"
     inkscape:groupmode="layer"
     id="layer1"
     transform="translate(0.26752133,-62.249573)">
    <g
       id="layer1-6"
       transform="matrix(0.26458333,0,0,0.26458333,10.542762,53.936596)" />
    <path
       style="fill:none;fill-opacity:0;stroke:#00fd85;stroke-width:2.231;stroke-linecap:butt;stroke-linejoin:miter;stroke-miterlimit:4;stroke-dasharray:none;stroke-opacity:1;filter:url(#filter15)"
       d="M 4.7889736,108.31538 C 5.916464,95.086207 11.698461,67.310097 14.344301,67.310097 c 5.29166,0 8.647497,40.384423 13.939166,40.384423 5.29167,0 6.717162,-16.398423 12.008832,-16.398423 5.29167,0 7.988791,12.391593 13.280461,12.391593 5.29166,0 6.457773,-10.865973 11.779503,-10.865973 5.2616,0 8.112618,9.533463 13.404288,9.533463 5.291657,0 7.856164,-7.552163 13.147824,-7.552163 5.29168,0 7.6598,6.661163 12.951475,6.661163 5.29166,0 6.68451,-6.798393 11.97587,-6.742103 5.81981,0.0619 3.80016,5.906363 13.07822,5.837133"
       id="path2822"
       sodipodi:nodetypes="csssssssssc" />
    <path
       d="M 4.7893136,108.31528 C 5.9167139,95.086147 11.698714,67.310077 14.344614,67.310077 h 6e-4 c 5.2913,0.003 8.6471,40.384403 13.938599,40.384403 h 6e-4 c 5.2911,-0.001 6.7167,-16.398443 12.0082,-16.398443 h 6e-4 c 5.2913,0.001 7.9884,12.391643 13.2798,12.391643 h 7e-4 c 5.2911,-9e-4 6.4573,-10.866023 11.7788,-10.866023 h 7e-4 c 5.2612,7.8e-4 8.1122,9.533423 13.4036,9.533423 h 7e-4 c 5.2912,-6e-4 7.855402,-7.552123 13.147402,-7.552123 v 0 c 5.292,5.4e-4 7.66,6.661123 12.951005,6.661123 h 0.001 c 5.291,-5e-4 6.684,-6.798353 11.975,-6.742063 v 1e-5 c 5.82,0.0621 3.8,5.906353 13.078,5.837153"
       style="fill:none;fill-opacity:0;stroke:#55fdad;stroke-width:2.231px;stroke-opacity:1;filter:url(#filter17)"
       id="path14" />
    <path
       d="M 4.7889736,108.31538 C 5.9163739,95.086277 11.698374,67.310077 14.344274,67.310077 h 3e-4 c 5.2915,0.002 8.6473,40.384503 13.938899,40.384503 h 3e-4 c 5.2914,-7e-4 6.7169,-16.398503 12.0085,-16.398503 h 3e-4 c 5.2915,6e-4 7.9886,12.391603 13.2801,12.391603 h 4e-4 c 5.2914,-4e-4 6.4575,-10.865903 11.7791,-10.865903 h 4e-4 c 5.2614,4e-4 8.1124,9.533403 13.4039,9.533403 h 4e-4 c 5.2914,-3e-4 7.855702,-7.552103 13.147702,-7.552103 v 0 c 5.292,2e-4 7.66,6.661103 12.951005,6.661103 h 10e-4 c 5.291,-2e-4 6.684,-6.798403 11.975,-6.742103 v 0 c 5.82,0.0621 3.8,5.906403 13.078,5.837203"
       style="fill:none;fill-opacity:0;stroke:#aafed6;stroke-width:2.231px;stroke-opacity:1;filter:url(#filter18)"
       id="path15" />
    <path
       style="fill:none;fill-opacity:0;stroke:#ffffff;stroke-width:2.231;stroke-linecap:butt;stroke-linejoin:miter;stroke-miterlimit:4;stroke-dasharray:none;stroke-opacity:1"
       d="M 4.7892866,108.31537 C 5.9167769,95.086197 11.698774,67.310077 14.344614,67.310077 c 5.29166,0 8.647497,40.384433 13.939166,40.384433 5.29167,0 6.717162,-16.398423 12.008832,-16.398423 5.29167,0 7.988791,12.391593 13.280461,12.391593 5.29166,0 6.457773,-10.865973 11.779503,-10.865973 5.2616,0 8.112618,9.533463 13.404288,9.533463 5.29166,0 7.856171,-7.552163 13.147841,-7.552163 5.29167,0 7.65979,6.661163 12.951465,6.661163 5.29166,0 6.68451,-6.798393 11.97587,-6.742103 5.81981,0.0619 3.80016,5.906363 13.07822,5.837133"
       id="path2822-1"
       sodipodi:nodetypes="csssssssssc" />
    <path
       d="m 25.910616,87.18939 q -0.33206,0.39356 -0.541135,0.50424 -0.196777,0.11069 -0.491942,0.11069 -0.578031,0 -0.934688,-0.38125 -0.344359,-0.39356 -0.344359,-1.29135 v -1.6972 q 0,-0.91009 0.344359,-1.29134 0.356657,-0.39356 0.934688,-0.39356 0.442748,0 0.737913,0.23368 0.307463,0.23367 0.467344,0.7871 0.159881,0.54114 0.33206,0.73791 0.356658,0.38126 1.26675,0.77481 0.910091,0.39356 1.992362,0.39356 1.6849,0 2.767171,-0.78711 0.688718,-0.47964 0.688718,-1.18066 0,-0.46735 -0.332061,-0.8732 -0.33206,-0.41815 -1.082271,-0.68871 -0.491941,-0.18448 -2.201438,-0.50424 -2.066154,-0.38126 -3.123828,-0.92239 -1.057674,-0.54114 -1.672601,-1.52502 -0.614926,-0.98389 -0.614926,-2.12765 0,-1.80788 1.51272,-3.16072 1.512719,-1.36514 3.935531,-1.36514 0.971584,0 1.795586,0.22137 0.836301,0.20908 1.51272,0.65183 0.491941,-0.47965 0.983883,-0.47965 0.553434,0 0.897793,0.39356 0.356657,0.38125 0.356657,1.27904 v 1.89398 q 0,0.91009 -0.356657,1.30364 -0.344359,0.38126 -0.897793,0.38126 -0.467344,0 -0.811703,-0.28287 -0.270568,-0.20907 -0.405852,-0.8363 -0.135284,-0.62723 -0.344359,-0.89779 -0.356658,-0.46735 -1.069973,-0.78711 -0.713315,-0.31976 -1.648004,-0.31976 -1.365137,0 -2.164542,0.63952 -0.787106,0.62723 -0.787106,1.31595 0,0.46734 0.319762,0.91009 0.33206,0.43045 0.959286,0.67642 0.41815,0.17218 2.34902,0.55343 1.943169,0.38126 2.976246,0.8363 1.045375,0.45505 1.734093,1.42663 0.688718,0.97159 0.688718,2.31213 0,1.86937 -1.315943,2.98854 -1.746392,1.47582 -4.45207,1.47582 -1.045376,0 -2.041557,-0.25826 -0.983883,-0.24598 -1.918572,-0.75022 z M 47.46995,81.65505 h -5.386759 v 3.65267 h 0.393553 q 0.910092,0 1.291346,0.35666 0.393554,0.34436 0.393554,0.91009 0,0.55343 -0.393554,0.91009 -0.381254,0.34436 -1.291346,0.34436 h -3.086932 q -0.910092,0 -1.303645,-0.34436 -0.381255,-0.35666 -0.381255,-0.92239 0,-0.68872 0.602629,-1.06997 0.295165,-0.19678 1.25445,-0.18448 v -9.86343 q -0.664121,-0.0615 -1.00848,-0.40585 -0.33206,-0.34436 -0.33206,-0.8609 0,-0.56573 0.381255,-0.91009 0.393553,-0.35665 1.303644,-0.35665 l 2.570394,0.0123 q 0.910092,0 1.291346,0.34436 0.393554,0.34436 0.393554,0.91009 0,0.56574 -0.393554,0.92239 -0.381254,0.34436 -1.291346,0.34436 h -0.393553 v 3.68956 H 47.46995 V 75.4443 h -0.393553 q -0.910092,0 -1.303645,-0.34436 -0.381255,-0.35665 -0.381255,-0.92239 0,-0.56573 0.381255,-0.91009 0.393553,-0.35665 1.303645,-0.35665 l 2.570393,0.0123 q 0.910092,0 1.291347,0.34436 0.393553,0.34436 0.393553,0.91009 0,0.51654 -0.344359,0.8609 -0.332061,0.34436 -0.996182,0.40585 v 9.86343 q 0.971585,0 1.254451,0.18448 0.602628,0.38125 0.602628,1.08227 0,0.55343 -0.393553,0.91009 -0.381254,0.34436 -1.291346,0.34436 h -3.086932 q -0.910092,0 -1.303645,-0.34436 -0.381255,-0.35666 -0.381255,-0.92239 0,-0.55343 0.393553,-0.89779 0.393553,-0.35666 1.291347,-0.35666 h 0.393553 z m 9.752739,0.47965 v 3.17302 h 0.910091 q 0.910092,0 1.291347,0.35666 0.393553,0.34436 0.393553,0.91009 0,0.55343 -0.393553,0.91009 -0.381255,0.34436 -1.291347,0.34436 h -3.824844 q -0.910092,0 -1.303645,-0.34436 -0.381255,-0.35666 -0.381255,-0.92239 0,-0.55343 0.393554,-0.89779 0.393553,-0.35666 1.291346,-0.35666 h 0.393553 v -9.86343 h -0.393553 q -0.910092,0 -1.303645,-0.34436 -0.381255,-0.35665 -0.381255,-0.92239 0,-0.56573 0.381255,-0.91009 0.393553,-0.35665 1.303645,-0.35665 l 5.70652,0.0123 q 2.668783,0 4.132308,1.32825 1.475825,1.31594 1.475825,3.20991 0,1.18066 -0.688718,2.15225 -0.688718,0.95928 -2.078453,1.70949 0.799405,0.70102 1.709496,1.79559 0.565733,0.70102 1.525019,2.18914 0.959286,0 1.266749,0.19678 0.553434,0.38125 0.553434,1.06997 0,0.55343 -0.381254,0.91009 -0.381255,0.34436 -1.291347,0.34436 h -1.438928 q -3.062336,-4.73494 -5.079296,-5.69422 z m 0,-2.5212 h 1.967765 q 1.09457,0 1.955468,-0.33206 1.156062,-0.44275 1.549615,-0.93469 0.405852,-0.49194 0.405852,-0.97159 0,-0.71331 -0.762509,-1.31594 -0.76251,-0.61493 -2.226035,-0.61493 h -2.890156 z m 15.127201,1.99236 v 3.70186 h 6.432134 v -1.36514 q 0,-0.91009 0.344359,-1.29134 0.356657,-0.39356 0.92239,-0.39356 0.553434,0 0.897793,0.39356 0.356658,0.38125 0.356658,1.29134 v 3.88634 H 69.435137 q -0.910092,0 -1.303645,-0.34436 -0.381255,-0.35666 -0.381255,-0.92239 0,-0.55343 0.393554,-0.89779 0.393553,-0.35666 1.291346,-0.35666 h 0.393553 v -9.86343 h -0.393553 q -0.910092,0 -1.303645,-0.34436 -0.381255,-0.35665 -0.381255,-0.92239 0,-0.56573 0.381255,-0.91009 0.393553,-0.35665 1.303645,-0.35665 l 11.314653,0.0123 v 3.83715 q 0,0.89779 -0.344359,1.29134 -0.344359,0.38126 -0.910092,0.38126 -0.565733,0 -0.92239,-0.38126 Q 78.22859,77.67034 78.22859,76.76025 V 75.4443 h -5.8787 v 3.64037 h 2.213736 q 0,-0.98388 0.184478,-1.26675 0.381255,-0.60263 1.082271,-0.60263 0.553434,0 0.897793,0.39356 0.356658,0.38125 0.356658,1.29134 v 2.90246 q 0,0.824 -0.196777,1.10686 -0.393553,0.57804 -1.057674,0.57804 -0.701016,0 -1.082271,-0.60263 -0.184478,-0.28287 -0.184478,-1.27905 z m 12.064862,3.70186 v -9.86343 q -0.799405,-0.0123 -1.18066,-0.35665 -0.381254,-0.35666 -0.381254,-0.9101 0,-0.56573 0.381254,-0.91009 0.393553,-0.35665 1.303645,-0.35665 l 5.276072,0.0123 q 1.229853,0 2.398214,0.45505 1.18066,0.45505 1.893975,1.15606 0.541135,0.52884 1.119166,1.45123 0.59033,0.92239 0.885495,1.83248 0.295165,0.91009 0.295165,2.22604 v 1.20525 q 0,1.59881 -0.541136,2.84096 -0.541135,1.22986 -1.42663,2.01696 -0.873196,0.77481 -1.648004,1.14377 -1.229853,0.57803 -3.18532,0.57803 h -5.066997 q -0.910092,0 -1.303645,-0.34436 -0.381254,-0.35666 -0.381254,-0.92239 0,-0.55343 0.381254,-0.91009 0.393553,-0.35666 1.18066,-0.34436 z m 2.521199,0 h 2.681081 q 1.500422,0 2.262931,-0.43045 0.996181,-0.56573 1.500421,-1.43893 0.50424,-0.87319 0.50424,-2.26293 v -1.19296 q 0,-1.19295 -0.455046,-2.09075 -0.713315,-1.40203 -1.611108,-1.91857 -0.885495,-0.52884 -2.226035,-0.52884 H 86.935951 Z M 110.45074,81.82723 H 99.9232 v -2.29982 h 10.52754 z m 11.48684,-1.59881 4.2061,5.0793 q 0.75021,0.0123 1.11917,0.36896 0.38125,0.34435 0.38125,0.89779 0,0.55343 -0.39355,0.91009 -0.38125,0.34436 -1.29135,0.34436 h -2.84096 q -0.89779,0 -1.29134,-0.34436 -0.38126,-0.35666 -0.38126,-0.92239 0,-0.52884 0.35666,-0.8732 0.35666,-0.35665 1.06997,-0.38125 l -2.5335,-3.12383 -2.55809,3.12383 q 0.70101,0.0246 1.05767,0.38125 0.35666,0.35666 0.35666,0.8855 0,0.55343 -0.39355,0.91009 -0.38126,0.34436 -1.29135,0.34436 h -2.82866 q -0.91009,0 -1.30365,-0.34436 -0.38125,-0.35666 -0.38125,-0.92239 0,-0.54114 0.38125,-0.89779 0.38126,-0.35666 1.11917,-0.35666 l 4.1815,-5.10389 -3.98472,-4.75954 q -0.73792,-0.0246 -1.10687,-0.36895 -0.35666,-0.35666 -0.35666,-0.8978 0,-0.56573 0.38125,-0.91009 0.39356,-0.35665 1.30365,-0.35665 l 2.32442,0.0123 q 0.91009,0 1.29135,0.34436 0.39355,0.34436 0.39355,0.91009 0,0.41815 -0.24597,0.76251 -0.15988,0.20908 -0.71331,0.50424 l 2.34902,2.81637 2.29982,-2.81637 q -0.55343,-0.29516 -0.71331,-0.50424 -0.24597,-0.34436 -0.24597,-0.76251 0,-0.55343 0.38125,-0.91009 0.39355,-0.35665 1.30365,-0.35665 l 2.31212,0.0123 q 0.91009,0 1.29135,0.34436 0.39355,0.34436 0.39355,0.91009 0,0.54114 -0.38125,0.8978 -0.36896,0.35665 -1.08228,0.36895 z"
       id="text1-8"
       style="font-weight:bold;font-size:25.1874px;font-family:'Courier New';-inkscape-font-specification:'Courier New Bold';text-align:center;text-anchor:middle;fill:#00fd85;stroke:#00fd85;stroke-width:1.847;stroke-dasharray:none;stroke-opacity:1;filter:url(#filter6)"
       aria-label="SHRED-X" />
    <path
       d="m 25.910625,87.189 c -0.2214,0.262 -0.4017,0.431 -0.5411,0.504 h -3e-4 c -0.1311,0.074 -0.295,0.111 -0.4917,0.111 h -2e-4 c -0.3852,0 -0.6967,-0.127 -0.9345,-0.381 h -10e-5 c -0.2295,-0.263 -0.3442,-0.693 -0.3442,-1.292 v 0 -1.697 0 c 0,-0.607 0.1148,-1.037 0.3443,-1.291 h 2e-4 c 0.2377,-0.263 0.5492,-0.394 0.9345,-0.394 h 3e-4 c 0.2951,0 0.5409,0.078 0.7376,0.234 h 2e-4 c 0.2049,0.156 0.3606,0.418 0.4672,0.787 v 0 c 0.1066,0.361 0.2173,0.607 0.3321,0.738 h 2e-4 c 0.2378,0.254 0.66,0.513 1.2665,0.775 h 3e-4 c 0.6066,0.262 1.2707,0.393 1.9921,0.393 h 2e-4 c 1.1232,0 2.0455,-0.262 2.7669,-0.787 h 3e-4 c 0.459,-0.32 0.6885,-0.713 0.6885,-1.18 v -0.001 c -1e-4,-0.311 -0.1108,-0.602 -0.3321,-0.873 h -1e-4 c -0.2214,-0.278 -0.5821,-0.508 -1.0822,-0.688 h -10e-5 c -0.3281,-0.123 -1.0618,-0.291 -2.2013,-0.505 h -2e-4 c -1.3773,-0.254 -2.4186,-0.561 -3.1236,-0.922 h -2e-4 c -0.7051,-0.361 -1.2625,-0.869 -1.6724,-1.525 h -10e-5 c -0.4099,-0.656 -0.6149,-1.365 -0.6149,-2.128 v 0 c 10e-5,-1.205 0.5043,-2.259 1.5127,-3.16 l 3e-4,-10e-4 c 1.0084,-0.909 2.3202,-1.364 3.9353,-1.364 h 3e-4 c 0.6476,0 1.246,0.073 1.7953,0.221 h 2e-4 c 0.5575,0.139 1.0616,0.357 1.5125,0.652 h 1e-4 c 0.328,-0.32 0.6559,-0.48 0.9838,-0.48 h 1e-4 c 0.3689,0 0.6681,0.131 0.8977,0.394 h 10e-5 c 0.2377,0.254 0.3565,0.68 0.3565,1.279 v 0 1.894 0 c 0,0.607 -0.1189,1.041 -0.3566,1.303 l -3e-4,10e-4 c -0.2295,0.254 -0.5287,0.381 -0.8975,0.381 h -3e-4 c -0.3115,0 -0.5819,-0.095 -0.8114,-0.283 h -2e-4 c -0.1803,-0.14 -0.3155,-0.419 -0.4057,-0.837 v 0 c -0.0902,-0.418 -0.205,-0.717 -0.3443,-0.897 l -2e-4,-0.001 c -0.2377,-0.311 -0.5944,-0.573 -1.0698,-0.787 h -3e-4 c -0.4754,-0.213 -1.0247,-0.319 -1.6477,-0.319 h -2e-4 c -0.91,0 -1.6315,0.213 -2.1644,0.639 h -2e-4 c -0.5246,0.419 -0.7869,0.857 -0.7869,1.316 v 0.001 c 10e-5,0.311 0.1067,0.614 0.3198,0.909 h 10e-5 c 0.2214,0.287 0.5411,0.513 0.9592,0.677 h 2e-4 c 0.2791,0.115 1.062,0.299 2.3488,0.553 h 3e-4 c 1.2953,0.254 2.2873,0.533 2.9759,0.836 l 2e-4,0.001 c 0.6969,0.303 1.2748,0.778 1.7339,1.426 h 1e-4 c 0.4591,0.648 0.6887,1.419 0.6887,2.312 v 10e-4 c -10e-5,1.246 -0.4388,2.242 -1.316,2.988 h -1e-4 c -1.1643,0.984 -2.6482,1.476 -4.452,1.476 h -10e-5 c -0.6969,0 -1.3774,-0.087 -2.0414,-0.259 h -3e-4 c -0.6558,-0.164 -1.2953,-0.414 -1.9183,-0.75 z m 7.1865,-1.845 z m 14.3725,-3.689 h -3.5913 -1.7951 v 2.435 1.217 h 0.2624 0.1311 c 0.4046,0 0.6917,0.08 0.8612,0.238 0.2021,0 0.3455,0.04 0.4302,0.119 0.1749,0.153 0.2624,0.355 0.2625,0.607 0.0874,0.076 0.131,0.178 0.131,0.303 0,0.246 -0.0874,0.448 -0.2623,0.607 -10e-5,0.123 -0.0438,0.224 -0.1312,0.303 -0.1695,0.153 -0.4566,0.23 -0.8612,0.23 -0.0847,0.076 -0.2281,0.115 -0.4302,0.115 h -2.0581 -1.0288 c -0.4046,0 -0.6944,-0.077 -0.8694,-0.23 -0.2021,0 -0.3468,-0.038 -0.4342,-0.115 -0.1695,-0.158 -0.2543,-0.363 -0.2543,-0.615 -0.0847,-0.079 -0.127,-0.181 -0.127,-0.307 0,-0.306 0.1339,-0.544 0.4018,-0.714 0,-0.153 0.067,-0.271 0.2008,-0.356 0.1313,-0.088 0.4101,-0.129 0.8365,-0.123 0.0657,-0.044 0.205,-0.064 0.418,-0.062 v -6.575 -3.288 c -0.2953,-0.027 -0.5194,-0.118 -0.6726,-0.271 -0.1474,-0.013 -0.2594,-0.058 -0.3359,-0.135 -0.1476,-0.153 -0.2215,-0.344 -0.2216,-0.574 -0.0736,-0.077 -0.1105,-0.172 -0.1105,-0.287 0,-0.251 0.0848,-0.454 0.2542,-0.607 10e-5,-0.125 0.0424,-0.226 0.1271,-0.303 0.175,-0.158 0.4647,-0.238 0.8692,-0.238 0.0875,-0.079 0.2323,-0.119 0.4344,-0.119 l 1.7138,0.009 0.8566,0.004 c 0.4046,0 0.6917,0.076 0.8612,0.229 0.2021,0 0.3455,0.039 0.4302,0.115 0.1749,0.153 0.2624,0.356 0.2625,0.607 0.0874,0.077 0.131,0.178 0.131,0.304 0,0.251 -0.0875,0.456 -0.2623,0.614 0,0.126 -0.0438,0.228 -0.1312,0.308 -0.1695,0.153 -0.4565,0.229 -0.861,0.229 -0.0848,0.077 -0.2282,0.115 -0.4304,0.115 h -0.2624 -0.1311 v 2.46 c 0,0.019 2e-4,1.23 6e-4,1.23 h 3.5906 l 1.7955,-0.001 v -2.459 l -1e-4,-1.23 h -0.2622 -0.1318 c -0.4042,0 -0.6937,-0.077 -0.8685,-0.23 -0.2023,0 -0.3473,-0.038 -0.4348,-0.115 -0.1693,-0.158 -0.2539,-0.363 -0.2539,-0.614 -0.0847,-0.08 -0.1271,-0.182 -0.1271,-0.308 10e-5,-0.251 0.0848,-0.454 0.2542,-0.606 0,-0.126 0.0425,-0.227 0.1273,-0.304 0.1749,-0.158 0.4646,-0.238 0.8688,-0.238 0.0875,-0.079 0.2325,-0.118 0.4349,-0.118 l 1.7133,0.008 0.8574,0.004 c 0.4042,0 0.6909,0.076 0.8603,0.229 0.2023,0 0.3459,0.039 0.4307,0.115 0.1747,0.153 0.2621,0.356 0.2621,0.607 0.0875,0.077 0.1312,0.178 0.1312,0.304 -2e-4,0.229 -0.0767,0.42 -0.2296,0.573 -1e-4,0.115 -0.0385,0.211 -0.1152,0.288 -0.1476,0.152 -0.3688,0.242 -0.6637,0.27 -0.0738,0.076 -0.1845,0.121 -0.3321,0.135 v 6.576 l 7e-4,3.287 c 0.4314,0 0.71,0.041 0.8356,0.123 0.2161,10e-4 0.3556,0.021 0.4186,0.062 0.2676,0.17 0.4013,0.41 0.4013,0.721 0.134,0.085 0.2009,0.206 0.2009,0.362 -10e-5,0.245 -0.0875,0.447 -0.2623,0.606 -2e-4,0.123 -0.0441,0.224 -0.1317,0.304 -0.1695,0.152 -0.4563,0.229 -0.8604,0.229 -0.0848,0.076 -0.2284,0.115 -0.4309,0.115 h -2.0575 -1.0296 c -0.4042,0 -0.6937,-0.077 -0.8685,-0.23 -0.2023,0 -0.3473,-0.038 -0.4348,-0.115 -0.1693,-0.158 -0.2539,-0.363 -0.2539,-0.615 -0.0847,-0.079 -0.1271,-0.182 -0.1271,-0.307 10e-5,-0.246 0.0875,-0.446 0.2624,-0.599 0,-0.123 0.0439,-0.223 0.1314,-0.299 0.1749,-0.158 0.4618,-0.238 0.8606,-0.238 0.0875,-0.079 0.231,-0.119 0.4307,-0.119 h 0.2622 0.1311 v -2.435 m 6.5019,-0.897 m 3.2509,0.159 v 1.058 2.115 h 0.3038 0.6063 c 0.2024,0 0.3461,0.04 0.431,0.119 0.4042,0 0.691,0.08 0.8603,0.238 0.0876,0.077 0.1314,0.178 0.1315,0.304 0.1747,0.153 0.2621,0.355 0.2621,0.606 0,0.123 -0.0438,0.225 -0.1312,0.304 -1e-4,0.246 -0.0876,0.448 -0.2624,0.606 -0.0849,0.077 -0.2285,0.115 -0.4309,0.115 -0.1695,0.153 -0.4563,0.23 -0.8604,0.23 h -1.2754 -2.5495 c -0.2024,0 -0.3475,-0.039 -0.4351,-0.115 -0.4042,0 -0.6937,-0.077 -0.8685,-0.23 -0.0848,-0.079 -0.1273,-0.182 -0.1273,-0.307 -0.1693,-0.159 -0.254,-0.364 -0.254,-0.615 0,-0.123 0.0438,-0.223 0.1312,-0.3 1e-4,-0.246 0.0876,-0.445 0.2624,-0.598 0.0875,-0.079 0.2311,-0.119 0.4307,-0.119 0.1749,-0.158 0.4618,-0.238 0.8606,-0.238 h 0.1314 0.2622 v -3.288 -6.575 h -0.1314 -0.2622 c -0.2024,0 -0.3475,-0.038 -0.4351,-0.115 -0.4042,0 -0.6937,-0.076 -0.8685,-0.229 -0.0848,-0.08 -0.1273,-0.182 -0.1273,-0.308 -0.1693,-0.159 -0.254,-0.363 -0.254,-0.615 0,-0.126 0.0424,-0.227 0.1271,-0.303 1e-4,-0.252 0.0848,-0.454 0.2542,-0.607 0.0875,-0.079 0.2325,-0.119 0.4348,-0.119 0.1749,-0.158 0.4645,-0.238 0.8688,-0.238 l 1.9024,0.005 3.8042,0.008 c 0.5932,0 1.0524,0.147 1.3778,0.443 1.1859,0 2.1041,0.295 2.7545,0.885 0.3281,0.293 0.4922,0.649 0.4924,1.07 0.6556,0.585 0.9834,1.298 0.9834,2.14 0,0.262 -0.0765,0.502 -0.2296,0.718 -10e-5,0.524 -0.1531,1.002 -0.4591,1.434 -0.1532,0.213 -0.3842,0.404 -0.6931,0.57 -0.3061,0.427 -0.7679,0.806 -1.3854,1.14 0.1777,0.156 0.3678,0.355 0.5701,0.598 0.3552,0.312 0.735,0.711 1.1394,1.197 0.1259,0.156 0.2954,0.4 0.5087,0.73 0.2514,0.312 0.5902,0.798 1.0163,1.459 0.2134,0 0.3544,0.022 0.4229,0.066 0.426,0 0.7073,0.044 0.8439,0.131 0.1231,0.085 0.1847,0.204 0.1848,0.357 0.2457,0.17 0.3686,0.407 0.3686,0.713 0,0.123 -0.0424,0.225 -0.1271,0.304 -10e-5,0.246 -0.0848,0.448 -0.2541,0.606 -0.0849,0.077 -0.2286,0.115 -0.431,0.115 -0.1695,0.153 -0.4563,0.23 -0.8604,0.23 h -0.4798 -0.9591 c -0.6806,-1.053 -1.2451,-1.686 -1.6934,-1.899 -1.3609,-2.104 -2.4895,-3.369 -3.3859,-3.796 h -0.8325 z m 0,-1.68 m 0,-0.841 h 0.6561 1.3116 c 0.2434,0 0.4608,-0.037 0.6522,-0.11 0.4864,-0.001 0.9208,-0.074 1.3033,-0.222 0.257,-0.098 0.4293,-0.202 0.5169,-0.312 0.5136,-0.196 0.8579,-0.404 1.0327,-0.623 0.0903,-0.109 0.1355,-0.217 0.1356,-0.324 0.1802,-0.218 0.2703,-0.434 0.2703,-0.647 0,-0.159 -0.0847,-0.305 -0.2542,-0.439 -2e-4,-0.317 -0.1696,-0.609 -0.5083,-0.877 -0.1696,-0.137 -0.4171,-0.205 -0.7425,-0.205 -0.3389,-0.273 -0.8334,-0.41 -1.4836,-0.41 h -0.9637 -1.9264 v 1.39 z m 10.0848,1.328 m 5.0424,0.665 v 1.234 2.467 h 2.1442 4.2879 v -0.455 -0.91 c 0,-0.202 0.0383,-0.346 0.1148,-0.431 10e-5,-0.404 0.0766,-0.691 0.2296,-0.86 0.0793,-0.088 0.1819,-0.131 0.3077,-0.132 0.1585,-0.174 0.3634,-0.262 0.6147,-0.262 0.1231,0 0.2229,0.044 0.2996,0.132 0.2458,0 0.4452,0.087 0.5982,0.262 0.0793,0.085 0.119,0.228 0.1191,0.431 0.1583,0.169 0.2375,0.456 0.2375,0.86 v 1.296 2.591 h -3.9564 -7.9117 c -0.2024,0 -0.3475,-0.039 -0.4351,-0.115 -0.4042,0 -0.6937,-0.077 -0.8685,-0.23 -0.0848,-0.079 -0.1273,-0.182 -0.1273,-0.307 -0.1693,-0.159 -0.254,-0.364 -0.254,-0.615 0,-0.123 0.0438,-0.223 0.1312,-0.3 1e-4,-0.246 0.0876,-0.445 0.2624,-0.598 0.0875,-0.079 0.2311,-0.119 0.4307,-0.119 0.1749,-0.158 0.4618,-0.238 0.8606,-0.238 h 0.1314 0.2622 v -3.288 -6.575 h -0.1314 -0.2622 c -0.2024,0 -0.3475,-0.038 -0.4351,-0.115 -0.4042,0 -0.6937,-0.076 -0.8685,-0.229 -0.0848,-0.08 -0.1273,-0.182 -0.1273,-0.308 -0.1693,-0.159 -0.254,-0.363 -0.254,-0.615 0,-0.126 0.0424,-0.227 0.1271,-0.303 1e-4,-0.252 0.0848,-0.454 0.2542,-0.607 0.0875,-0.079 0.2325,-0.119 0.4348,-0.119 0.1749,-0.158 0.4645,-0.238 0.8688,-0.238 l 3.7719,0.005 7.5428,0.008 v 1.279 2.558 c 0,0.2 -0.0383,0.343 -0.1148,0.431 -1e-4,0.399 -0.0766,0.685 -0.2296,0.86 -0.0766,0.085 -0.1779,0.128 -0.3038,0.128 -0.153,0.169 -0.3551,0.254 -0.6063,0.254 -0.1258,0 -0.2284,-0.043 -0.3078,-0.128 -0.2513,0 -0.4561,-0.084 -0.6146,-0.254 -0.0766,-0.085 -0.115,-0.228 -0.1152,-0.431 -0.1527,-0.169 -0.2291,-0.456 -0.2291,-0.86 v -0.439 -0.877 h -1.9598 -3.9189 v 1.214 2.426 h 0.7382 1.4755 c 0,-0.218 0.0205,-0.359 0.0615,-0.423 1e-4,-0.436 0.041,-0.718 0.123,-0.843 0.0848,-0.134 0.2051,-0.202 0.361,-0.202 0.1694,-0.267 0.4099,-0.401 0.7213,-0.401 0.1231,0 0.223,0.044 0.2996,0.131 0.2458,0 0.4452,0.088 0.5982,0.263 0.0793,0.084 0.119,0.228 0.1191,0.43 0.1583,0.17 0.2375,0.457 0.2375,0.861 v 0.968 1.934 c 0,0.184 -0.0218,0.307 -0.0656,0.37 0,0.366 -0.0437,0.612 -0.1312,0.737 -0.0875,0.129 -0.2051,0.193 -0.3528,0.193 -0.1749,0.257 -0.4098,0.385 -0.7048,0.385 -0.156,0 -0.2764,-0.067 -0.3612,-0.201 -0.3114,0 -0.5517,-0.134 -0.7211,-0.401 -0.0411,-0.063 -0.0617,-0.206 -0.0617,-0.427 -0.0819,-0.126 -0.1228,-0.41 -0.1228,-0.852 h -0.7382 z m 8.0432,2.467 m 4.0216,1.234 v -3.288 -6.575 c -0.1778,-0.003 -0.3091,-0.042 -0.394,-0.119 -0.3551,-0.005 -0.6172,-0.085 -0.7866,-0.238 -0.0848,-0.079 -0.1273,-0.18 -0.1273,-0.303 -0.1693,-0.159 -0.254,-0.361 -0.254,-0.607 0,-0.126 0.0424,-0.227 0.1271,-0.303 1e-4,-0.252 0.0848,-0.454 0.2542,-0.607 0.0875,-0.079 0.2325,-0.119 0.4348,-0.119 0.1749,-0.158 0.4645,-0.238 0.8688,-0.238 l 1.7594,0.005 3.5167,0.008 c 0.2734,0 0.54,0.05 0.7998,0.151 0.5465,0.001 1.0793,0.102 1.5984,0.304 0.2625,0.101 0.4731,0.23 0.6317,0.385 0.5246,0.203 0.9453,0.459 1.2623,0.771 0.1204,0.118 0.2448,0.279 0.3734,0.484 0.2404,0.235 0.489,0.557 0.7458,0.967 0.1312,0.205 0.2297,0.409 0.2953,0.611 0.2623,0.41 0.459,0.817 0.5902,1.222 0.0656,0.202 0.0985,0.45 0.0985,0.742 0.1311,0.405 0.1966,0.899 0.1966,1.484 v 0.402 0.803 c 0,0.355 -0.0601,0.671 -0.1804,0.947 0,0.711 -0.1203,1.342 -0.3607,1.894 -0.1203,0.273 -0.2789,0.498 -0.4757,0.673 -0.2405,0.546 -0.5575,0.994 -0.9509,1.344 -0.1942,0.172 -0.3774,0.299 -0.5497,0.381 -0.3879,0.345 -0.7541,0.599 -1.0984,0.763 -0.2734,0.128 -0.6274,0.192 -1.0621,0.192 -0.5466,0.257 -1.2543,0.386 -2.1232,0.386 h -1.6896 -3.3774 c -0.2024,0 -0.3475,-0.039 -0.4351,-0.115 -0.4042,0 -0.6937,-0.077 -0.8685,-0.23 -0.0848,-0.079 -0.1273,-0.182 -0.1273,-0.307 -0.1693,-0.159 -0.254,-0.364 -0.254,-0.615 0,-0.123 0.0424,-0.224 0.1271,-0.304 1e-4,-0.246 0.0848,-0.448 0.2542,-0.606 0.0875,-0.08 0.2188,-0.118 0.3938,-0.115 0.1749,-0.159 0.4372,-0.235 0.7868,-0.23 z m 1.6808,0 m 0.8404,0 h 0.8941 1.787 c 0.3336,0 0.5852,-0.047 0.7548,-0.143 0.6666,0 1.1693,-0.096 1.5082,-0.287 0.2214,-0.126 0.3883,-0.286 0.5004,-0.48 0.4426,-0.251 0.7759,-0.571 1,-0.959 0.1121,-0.194 0.1683,-0.446 0.1684,-0.755 0.2239,-0.388 0.3358,-0.891 0.3358,-1.508 v -0.398 -0.795 c 0,-0.265 -0.0505,-0.498 -0.1517,-0.697 0,-0.53 -0.1011,-0.995 -0.3033,-1.394 -0.1586,-0.311 -0.3377,-0.525 -0.5373,-0.64 -0.317,-0.622 -0.6749,-1.049 -1.0738,-1.278 -0.197,-0.118 -0.4445,-0.177 -0.7426,-0.177 -0.3935,-0.235 -0.888,-0.352 -1.4835,-0.352 h -0.8858 -1.7707 v 3.288 z m 15.676595,-2.32 m 7.8381,-1.16 h -3.509 -7.01839 V 81.06 79.527 h 3.50949 7.0179 v 0.767 z m 7.658,-1.066 m 3.829,-0.533 1.402,1.693 2.804,3.386 c 0.167,0.003 0.291,0.044 0.374,0.123 0.333,0.006 0.581,0.088 0.745,0.246 0.085,0.077 0.128,0.177 0.128,0.3 0.169,0.153 0.253,0.352 0.253,0.598 0,0.123 -0.043,0.225 -0.131,0.304 0,0.246 -0.087,0.448 -0.262,0.606 -0.085,0.077 -0.229,0.115 -0.431,0.115 -0.17,0.153 -0.456,0.23 -0.86,0.23 h -0.948 -1.893 c -0.2,0 -0.344,-0.039 -0.431,-0.115 -0.399,0 -0.686,-0.077 -0.861,-0.23 -0.085,-0.079 -0.127,-0.182 -0.127,-0.307 -0.169,-0.159 -0.254,-0.364 -0.254,-0.615 0,-0.118 0.04,-0.215 0.119,-0.292 0,-0.234 0.079,-0.428 0.238,-0.581 0.079,-0.08 0.198,-0.122 0.357,-0.128 0.158,-0.158 0.396,-0.243 0.713,-0.254 l -0.845,-1.041 -1.689,-2.082 -0.853,1.041 -1.705,2.082 c 0.156,0.006 0.274,0.048 0.353,0.128 0.311,0.011 0.546,0.095 0.705,0.254 0.079,0.079 0.119,0.178 0.119,0.295 0.158,0.159 0.237,0.355 0.237,0.59 0,0.123 -0.043,0.225 -0.131,0.304 0,0.246 -0.087,0.448 -0.262,0.606 -0.085,0.077 -0.229,0.115 -0.431,0.115 -0.169,0.153 -0.456,0.23 -0.86,0.23 h -0.944 -1.885 c -0.203,0 -0.348,-0.039 -0.435,-0.115 -0.404,0 -0.694,-0.077 -0.869,-0.23 -0.085,-0.079 -0.127,-0.182 -0.127,-0.307 -0.169,-0.159 -0.254,-0.364 -0.254,-0.615 0,-0.121 0.042,-0.22 0.127,-0.3 0,-0.24 0.085,-0.439 0.254,-0.598 0.085,-0.079 0.209,-0.119 0.374,-0.119 0.169,-0.158 0.418,-0.238 0.745,-0.238 l 1.394,-1.701 2.788,-3.402 -1.328,-1.587 c -0.021,-0.025 -2.657,-3.173 -2.657,-3.173 -0.164,-0.006 -0.287,-0.047 -0.369,-0.123 -0.328,-0.011 -0.574,-0.093 -0.738,-0.246 -0.079,-0.079 -0.119,-0.179 -0.119,-0.299 -0.158,-0.159 -0.237,-0.358 -0.237,-0.599 0,-0.126 0.042,-0.227 0.127,-0.303 0,-0.252 0.085,-0.454 0.254,-0.607 0.087,-0.079 0.232,-0.119 0.434,-0.119 0.175,-0.158 0.465,-0.238 0.87,-0.238 l 0.774,0.005 1.55,0.008 c 0.202,0 0.346,0.038 0.43,0.115 0.405,0 0.692,0.076 0.861,0.229 0.088,0.077 0.131,0.178 0.131,0.304 0.175,0.153 0.263,0.355 0.263,0.606 0,0.093 -0.027,0.178 -0.082,0.255 0,0.186 -0.055,0.355 -0.164,0.508 -0.036,0.046 -0.115,0.102 -0.238,0.168 -0.071,0.093 -0.229,0.205 -0.475,0.336 l 0.783,0.939 1.566,1.877 0.766,-0.938 1.533,-1.878 c -0.123,-0.066 -0.202,-0.122 -0.237,-0.168 -0.246,-0.131 -0.405,-0.243 -0.476,-0.336 -0.055,-0.077 -0.082,-0.162 -0.082,-0.254 -0.109,-0.154 -0.164,-0.323 -0.164,-0.509 0,-0.123 0.043,-0.224 0.127,-0.303 0,-0.246 0.085,-0.448 0.254,-0.607 0.088,-0.079 0.233,-0.119 0.435,-0.119 0.175,-0.158 0.465,-0.237 0.869,-0.237 l 0.771,0.004 1.541,0.008 c 0.203,0 0.346,0.038 0.431,0.115 0.404,0 0.691,0.076 0.861,0.229 0.087,0.077 0.131,0.178 0.131,0.304 0.175,0.153 0.262,0.355 0.262,0.606 0,0.121 -0.042,0.22 -0.127,0.3 0,0.24 -0.085,0.44 -0.254,0.598 -0.082,0.079 -0.203,0.12 -0.361,0.123 -0.164,0.159 -0.404,0.241 -0.721,0.246 l -1.312,1.595"
       style="mix-blend-mode:normal;fill:#55fdad;stroke:#55fdad;stroke-width:1.547;stroke-dasharray:none;stroke-opacity:1;filter:url(#filter9)"
       id="path6" />
    <path
       d="m 25.910925,87.189 c -0.2214,0.263 -0.4017,0.431 -0.5411,0.504 l -5e-4,0.001 c -0.1311,0.073 -0.2949,0.11 -0.4915,0.11 h -3e-4 c -0.3852,0 -0.6967,-0.127 -0.9344,-0.381 h -2e-4 c -0.2294,-0.263 -0.3441,-0.693 -0.3441,-1.291 v -0.001 -1.697 0 c 10e-5,-0.607 0.1148,-1.037 0.3443,-1.291 h 3e-4 c 0.2377,-0.262 0.5492,-0.394 0.9344,-0.394 h 6e-4 c 0.2949,0.001 0.5407,0.078 0.7373,0.234 h 4e-4 c 0.2048,0.156 0.3605,0.419 0.467,0.787 l 10e-5,0.001 c 0.1066,0.36 0.2172,0.606 0.332,0.737 h 10e-5 c 0.2378,0.254 0.66,0.513 1.2666,0.775 h 6e-4 c 0.6066,0.262 1.2705,0.394 1.9918,0.394 h 5e-4 c 1.123,-0.001 2.0452,-0.263 2.7666,-0.788 h 5e-4 c 0.4588,-0.32 0.6883,-0.713 0.6883,-1.18 v -0.001 c -2e-4,-0.311 -0.1109,-0.602 -0.3321,-0.872 l -2e-4,-0.001 c -0.2214,-0.278 -0.5821,-0.508 -1.0821,-0.688 h -3e-4 c -0.3281,-0.123 -1.0618,-0.291 -2.2011,-0.504 h -4e-4 c -1.3772,-0.255 -2.4184,-0.562 -3.1234,-0.923 h -4e-4 c -0.7049,-0.361 -1.2624,-0.869 -1.6722,-1.525 h -2e-4 c -0.4099,-0.656 -0.6148,-1.365 -0.6148,-2.127 v -0.001 c 2e-4,-1.205 0.5044,-2.258 1.5127,-3.16 l 5e-4,-10e-4 c 1.0085,-0.909 2.3201,-1.364 3.9351,-1.364 h 6e-4 c 0.6475,0 1.2458,0.074 1.795,0.221 h 5e-4 c 0.5573,0.14 1.0614,0.357 1.5122,0.652 h 3e-4 c 0.3279,-0.32 0.6557,-0.48 0.9836,-0.48 h 3e-4 c 0.3688,0 0.668,0.131 0.8975,0.394 h 2e-4 c 0.2376,0.254 0.3564,0.68 0.3564,1.279 v 0 1.894 0 c -10e-5,0.607 -0.1189,1.041 -0.3566,1.303 l -5e-4,10e-4 c -0.2295,0.254 -0.5286,0.381 -0.8973,0.381 h -6e-4 c -0.3113,0 -0.5817,-0.095 -0.8111,-0.283 h -4e-4 c -0.1802,-0.14 -0.3154,-0.419 -0.4055,-0.836 l -1e-4,-0.001 c -0.0902,-0.418 -0.2049,-0.717 -0.3442,-0.897 l -3e-4,-0.001 c -0.2378,-0.311 -0.5943,-0.573 -1.0697,-0.786 l -5e-4,-10e-4 c -0.4754,-0.213 -1.0246,-0.319 -1.6475,-0.319 h -5e-4 c -0.9099,0 -1.6312,0.213 -2.1641,0.639 l -5e-4,0.001 c -0.5244,0.418 -0.7866,0.856 -0.7866,1.315 v 0.001 c 2e-4,0.311 0.1068,0.614 0.3198,0.909 l 2e-4,0.001 c 0.2214,0.287 0.5411,0.512 0.9591,0.676 h 5e-4 c 0.2793,0.115 1.0621,0.299 2.3485,0.553 h 6e-4 c 1.2952,0.255 2.287,0.533 2.9756,0.837 h 4e-4 c 0.6967,0.303 1.2747,0.779 1.7337,1.426 l 3e-4,10e-4 c 0.459,0.647 0.6885,1.418 0.6885,2.311 v 10e-4 c -2e-4,1.246 -0.4388,2.242 -1.316,2.988 h -3e-4 c -1.1642,0.984 -2.6481,1.476 -4.4518,1.476 h -3e-4 c -0.6968,0 -1.3772,-0.086 -2.0412,-0.259 h -7e-4 c -0.6557,-0.164 -1.295,-0.414 -1.9179,-0.75 z m 14.3729,-3.689 z m 7.1858,-1.845 h -1.796 -3.5901 v 1.218 2.435 h 0.1314 0.2621 c 0.2025,0 0.3462,0.039 0.4311,0.118 0.4042,0.001 0.6909,0.08 0.8603,0.238 0.0875,0.077 0.1313,0.178 0.1314,0.304 0.1748,0.153 0.2621,0.355 0.2621,0.606 0,0.123 -0.0437,0.225 -0.1311,0.304 -1e-4,0.246 -0.0876,0.448 -0.2624,0.606 -0.0849,0.077 -0.2286,0.115 -0.431,0.116 -0.1695,0.152 -0.4563,0.229 -0.8604,0.229 h -1.0293 -2.0576 c -0.2024,0 -0.3475,-0.039 -0.4351,-0.115 -0.4042,0 -0.6937,-0.077 -0.8685,-0.23 -0.0848,-0.079 -0.1273,-0.182 -0.1274,-0.307 -0.1693,-0.159 -0.2539,-0.364 -0.2539,-0.615 0,-0.153 0.067,-0.272 0.2009,-0.357 10e-5,-0.306 0.134,-0.544 0.4017,-0.713 0.0658,-0.044 0.2053,-0.064 0.4186,-0.062 0.1313,-0.087 0.41,-0.128 0.8359,-0.122 v -3.289 -6.575 c -0.1477,-0.014 -0.2599,-0.059 -0.3366,-0.135 -0.295,-0.028 -0.5189,-0.118 -0.6719,-0.271 -0.0739,-0.076 -0.111,-0.172 -0.1111,-0.287 -0.1473,-0.153 -0.221,-0.344 -0.221,-0.574 0,-0.125 0.0424,-0.227 0.1271,-0.303 1e-4,-0.252 0.0848,-0.454 0.2542,-0.607 0.0875,-0.079 0.2325,-0.119 0.4348,-0.119 0.1749,-0.158 0.4646,-0.237 0.8688,-0.237 l 0.8572,0.004 1.7132,0.008 c 0.2025,0 0.3462,0.038 0.4311,0.115 0.4042,0 0.6909,0.076 0.8603,0.229 0.0875,0.077 0.1313,0.178 0.1314,0.304 0.1748,0.153 0.2621,0.355 0.2621,0.607 0,0.125 -0.0437,0.228 -0.1311,0.307 0,0.251 -0.0875,0.456 -0.2624,0.615 -0.0848,0.076 -0.2284,0.115 -0.4307,0.115 -0.1695,0.153 -0.4564,0.229 -0.8607,0.229 h -0.1313 -0.2622 v 1.23 c 0,0.038 10e-5,2.46 3e-4,2.46 h 1.7953 l 3.5911,-0.001 v -1.229 l -10e-5,-2.46 h -0.131 -0.2627 c -0.2021,0 -0.3468,-0.038 -0.4343,-0.115 -0.4045,0 -0.6942,-0.076 -0.8692,-0.229 -0.0846,-0.08 -0.1269,-0.182 -0.1269,-0.308 -0.1695,-0.158 -0.2542,-0.363 -0.2542,-0.615 0,-0.125 0.0424,-0.226 0.1271,-0.303 0,-0.251 0.0848,-0.454 0.2543,-0.607 0.0874,-0.079 0.2323,-0.119 0.4344,-0.119 0.1749,-0.158 0.4647,-0.237 0.8692,-0.237 l 0.8567,0.004 1.7139,0.008 c 0.2021,0 0.3455,0.038 0.4301,0.115 0.4046,0 0.6916,0.076 0.8611,0.229 0.0873,0.077 0.131,0.178 0.131,0.304 0.1749,0.153 0.2624,0.355 0.2624,0.607 -1e-4,0.114 -0.0384,0.21 -0.1148,0.286 -10e-5,0.23 -0.0767,0.421 -0.2298,0.575 -0.0738,0.076 -0.1844,0.121 -0.3318,0.135 -0.1476,0.153 -0.369,0.243 -0.6642,0.27 v 3.288 l 4e-4,6.576 c 0.2157,0 0.355,0.02 0.4178,0.061 0.4319,0 0.7107,0.041 0.8365,0.123 0.1338,0.085 0.2007,0.205 0.2007,0.361 0.2678,0.169 0.4017,0.41 0.4017,0.722 0,0.122 -0.0437,0.223 -0.1312,0.303 0,0.246 -0.0876,0.448 -0.2626,0.607 -0.0847,0.076 -0.2281,0.114 -0.4302,0.114 -0.1694,0.153 -0.4565,0.23 -0.8611,0.23 h -1.0288 -2.0582 c -0.2021,0 -0.3468,-0.039 -0.4343,-0.115 -0.4045,0 -0.6942,-0.077 -0.8692,-0.23 -0.0846,-0.079 -0.1269,-0.181 -0.1269,-0.307 -0.1695,-0.159 -0.2542,-0.364 -0.2542,-0.615 0,-0.123 0.0438,-0.223 0.1312,-0.299 0,-0.246 0.0875,-0.446 0.2625,-0.599 0.0874,-0.079 0.2309,-0.119 0.4303,-0.119 0.1749,-0.158 0.4619,-0.237 0.861,-0.237 h 0.1311 l 0.2623,-0.001 V 84.09 m 3.251,-2.275 m 6.5018,0.32 v 2.115 1.058 h 0.6069 0.3032 c 0.4046,0 0.6916,0.079 0.8612,0.237 0.2021,0 0.3454,0.04 0.4301,0.119 0.175,0.153 0.2625,0.356 0.2625,0.607 0.0874,0.077 0.1311,0.178 0.1311,0.303 0,0.246 -0.0875,0.449 -0.2624,0.607 0,0.123 -0.0438,0.224 -0.1312,0.303 -0.1695,0.154 -0.4566,0.23 -0.8611,0.23 -0.0848,0.077 -0.2282,0.115 -0.4302,0.115 h -2.5502 -1.2747 c -0.4046,0 -0.6944,-0.077 -0.8694,-0.23 -0.202,0 -0.3468,-0.038 -0.4342,-0.115 -0.1695,-0.158 -0.2543,-0.363 -0.2543,-0.615 -0.0846,-0.079 -0.127,-0.181 -0.127,-0.307 0,-0.246 0.0875,-0.446 0.2624,-0.599 0,-0.123 0.0438,-0.222 0.1312,-0.299 0.1749,-0.158 0.4619,-0.238 0.861,-0.238 0.0875,-0.079 0.2309,-0.118 0.4303,-0.118 h 0.2625 0.1311 v -6.576 -3.288 h -0.2625 -0.1311 c -0.4046,0 -0.6944,-0.076 -0.8694,-0.229 -0.202,0 -0.3468,-0.039 -0.4342,-0.115 -0.1695,-0.159 -0.2543,-0.364 -0.2543,-0.615 -0.0846,-0.08 -0.127,-0.182 -0.127,-0.308 0,-0.251 0.0848,-0.453 0.2542,-0.607 0,-0.125 0.0424,-0.226 0.1271,-0.303 0.1749,-0.158 0.4647,-0.238 0.8692,-0.238 0.0875,-0.079 0.2323,-0.118 0.4344,-0.118 l 3.8045,0.008 1.9021,0.004 c 1.1861,0 2.1045,0.295 2.755,0.885 0.593,0 1.0521,0.148 1.3773,0.443 0.656,0.585 0.984,1.299 0.9841,2.14 0.3278,0.293 0.4917,0.649 0.4917,1.07 0,0.525 -0.1531,1.003 -0.4592,1.435 0,0.262 -0.0765,0.501 -0.2295,0.717 -0.3062,0.427 -0.7681,0.807 -1.3858,1.14 -0.153,0.213 -0.3839,0.403 -0.6927,0.57 0.3553,0.311 0.7353,0.71 1.1398,1.197 0.1776,0.156 0.3675,0.355 0.5697,0.598 0.2515,0.312 0.5905,0.799 1.0169,1.46 0.1257,0.156 0.2951,0.399 0.5081,0.73 0.4265,0 0.7081,0.043 0.8448,0.131 0.213,0 0.3537,0.022 0.422,0.065 0.246,0.17 0.3691,0.408 0.3691,0.714 0.1229,0.084 0.1843,0.203 0.1843,0.356 0,0.246 -0.0847,0.449 -0.2542,0.607 0,0.123 -0.0424,0.224 -0.127,0.303 -0.1696,0.154 -0.4566,0.23 -0.8612,0.23 -0.0847,0.077 -0.2281,0.115 -0.4302,0.115 h -0.9594 -0.4795 c -1.3611,-2.105 -2.4899,-3.37 -3.3863,-3.797 -0.6805,-1.052 -1.2448,-1.684 -1.693,-1.897 h -1.6646 z m 0,-0.841 m 0,-1.681 h 1.3119 0.6558 c 0.4866,0 0.9212,-0.073 1.3039,-0.221 0.2431,0 0.4604,-0.037 0.6516,-0.111 0.5139,-0.197 0.8583,-0.404 1.0333,-0.623 0.2568,-0.098 0.4289,-0.202 0.5163,-0.311 0.1805,-0.219 0.2707,-0.435 0.2707,-0.648 0.0901,-0.11 0.1352,-0.217 0.1352,-0.324 0,-0.317 -0.1695,-0.61 -0.5084,-0.878 0,-0.158 -0.0848,-0.304 -0.2541,-0.438 -0.339,-0.273 -0.8338,-0.41 -1.4843,-0.41 -0.1694,-0.137 -0.4167,-0.205 -0.7418,-0.205 h -1.9269 -0.9632 v 2.78 z m 5.0424,0.664 m 10.0848,1.329 v 2.468 1.234 h 4.2882 2.1439 v -0.911 -0.455 c 0,-0.404 0.0765,-0.691 0.2296,-0.861 0,-0.202 0.0383,-0.345 0.1148,-0.43 0.1585,-0.175 0.3635,-0.262 0.615,-0.262 0.0793,-0.088 0.1817,-0.131 0.3074,-0.131 0.246,0 0.4456,0.087 0.5987,0.262 0.1229,0 0.2226,0.044 0.2991,0.131 0.1585,0.17 0.2378,0.457 0.2378,0.861 0.0792,0.085 0.1188,0.228 0.1188,0.43 v 2.592 1.295 h -7.9122 -3.9559 c -0.4046,0 -0.6943,-0.077 -0.8694,-0.23 -0.202,0 -0.3468,-0.038 -0.4342,-0.115 -0.1695,-0.158 -0.2543,-0.363 -0.2543,-0.615 -0.0846,-0.079 -0.127,-0.181 -0.127,-0.307 0,-0.246 0.0875,-0.446 0.2624,-0.599 0,-0.123 0.0438,-0.222 0.1312,-0.299 0.1749,-0.158 0.4619,-0.238 0.861,-0.238 0.0875,-0.079 0.2309,-0.118 0.4303,-0.118 h 0.2625 0.1311 v -6.576 -3.288 h -0.2625 -0.1311 c -0.4046,0 -0.6943,-0.076 -0.8694,-0.229 -0.202,0 -0.3468,-0.039 -0.4342,-0.115 -0.1695,-0.159 -0.2543,-0.364 -0.2543,-0.615 -0.0846,-0.08 -0.127,-0.182 -0.127,-0.308 0,-0.251 0.0848,-0.453 0.2542,-0.607 0,-0.125 0.0424,-0.226 0.1271,-0.303 0.1749,-0.158 0.4647,-0.238 0.8692,-0.238 0.0875,-0.079 0.2323,-0.118 0.4344,-0.118 l 7.5433,0.008 3.7714,0.004 v 2.558 1.279 c 0,0.399 -0.0765,0.686 -0.2296,0.861 0,0.2 -0.0383,0.343 -0.1148,0.43 -0.1531,0.17 -0.3554,0.255 -0.6069,0.255 -0.0765,0.084 -0.1776,0.127 -0.3032,0.127 -0.2515,0 -0.4565,-0.085 -0.6151,-0.254 -0.1256,-0.001 -0.228,-0.043 -0.3073,-0.128 -0.1531,-0.169 -0.2297,-0.456 -0.2298,-0.861 -0.0763,-0.084 -0.1145,-0.228 -0.1145,-0.43 v -0.878 -0.438 h -3.9192 -1.9595 v 2.427 1.214 h 1.4759 0.7378 c 0,-0.438 0.041,-0.719 0.123,-0.845 0,-0.219 0.0205,-0.359 0.0615,-0.422 0.1695,-0.268 0.41,-0.402 0.7216,-0.402 0.0848,-0.134 0.205,-0.201 0.3607,-0.201 0.246,0 0.4456,0.088 0.5987,0.263 0.1229,0 0.2226,0.043 0.2991,0.131 0.1585,0.169 0.2378,0.456 0.2379,0.861 0.0791,0.084 0.1187,0.228 0.1187,0.43 v 1.935 0.967 c 0,0.367 -0.0437,0.613 -0.1312,0.739 0,0.183 -0.0218,0.306 -0.0656,0.368 -0.1749,0.257 -0.41,0.386 -0.7052,0.386 -0.0874,0.128 -0.2049,0.192 -0.3524,0.192 -0.3117,0 -0.5522,-0.134 -0.7218,-0.401 -0.1556,0 -0.2758,-0.067 -0.3605,-0.201 -0.082,-0.126 -0.1231,-0.41 -0.1231,-0.853 -0.0409,-0.063 -0.0614,-0.205 -0.0614,-0.426 h -1.4759 z m 4.0216,1.234 m 8.0432,2.468 v -6.576 -3.288 c -0.3553,-0.005 -0.6178,-0.085 -0.7873,-0.238 -0.1775,-0.002 -0.3086,-0.042 -0.3933,-0.119 -0.1695,-0.158 -0.2543,-0.36 -0.2543,-0.606 -0.0846,-0.08 -0.127,-0.181 -0.127,-0.304 0,-0.251 0.0848,-0.453 0.2542,-0.607 0,-0.125 0.0424,-0.226 0.1271,-0.303 0.1749,-0.158 0.4647,-0.238 0.8692,-0.238 0.0875,-0.079 0.2323,-0.118 0.4344,-0.118 l 3.5177,0.008 1.7584,0.004 c 0.5467,0 1.0797,0.101 1.599,0.303 0.2732,0 0.5396,0.051 0.7992,0.152 0.5248,0.202 0.9458,0.459 1.2629,0.771 0.2622,0.101 0.4726,0.229 0.6311,0.385 0.2406,0.235 0.4893,0.558 0.7463,0.968 0.1202,0.117 0.2445,0.278 0.3729,0.483 0.2624,0.41 0.4592,0.818 0.5904,1.222 0.1311,0.205 0.2295,0.409 0.2951,0.611 0.1312,0.404 0.1968,0.899 0.1968,1.484 0.0656,0.202 0.0983,0.45 0.0983,0.742 v 0.804 0.401 c 0,0.711 -0.1202,1.342 -0.3607,1.894 -10e-5,0.355 -0.0602,0.671 -0.1804,0.947 -0.2406,0.547 -0.5576,0.995 -0.9512,1.345 -0.1202,0.273 -0.2787,0.497 -0.4754,0.672 -0.3882,0.344 -0.7545,0.599 -1.0989,0.763 -0.1939,0.172 -0.377,0.299 -0.5492,0.381 -0.5466,0.257 -1.2545,0.385 -2.1237,0.385 -0.2733,0.129 -0.6271,0.193 -1.0616,0.193 h -3.3783 -1.6887 c -0.4046,0 -0.6943,-0.077 -0.8694,-0.23 -0.202,0 -0.3468,-0.038 -0.4342,-0.115 -0.1695,-0.158 -0.2543,-0.363 -0.2543,-0.615 -0.0846,-0.079 -0.127,-0.181 -0.127,-0.307 0,-0.246 0.0848,-0.448 0.2542,-0.607 0,-0.123 0.0424,-0.224 0.1271,-0.303 0.1749,-0.159 0.4374,-0.235 0.7872,-0.23 0.0875,-0.079 0.2186,-0.117 0.3934,-0.114 z m 0.8404,0 m 1.6808,0 h 1.7876 0.8935 c 0.667,0 1.1699,-0.096 1.5089,-0.287 0.3333,0 0.5847,-0.048 0.7541,-0.144 0.4428,-0.251 0.7762,-0.571 1.0004,-0.959 0.2213,-0.126 0.388,-0.286 0.5,-0.48 0.2241,-0.388 0.3362,-0.891 0.3363,-1.509 0.1119,-0.194 0.1679,-0.445 0.1679,-0.754 V 80.38 79.982 c 0,-0.53 -0.1011,-0.995 -0.3033,-1.394 -1e-4,-0.265 -0.0506,-0.497 -0.1517,-0.696 -0.3171,-0.624 -0.6752,-1.05 -1.0742,-1.28 -0.1585,-0.311 -0.3375,-0.524 -0.5369,-0.639 -0.3937,-0.235 -0.8885,-0.353 -1.4843,-0.353 -0.1968,-0.117 -0.444,-0.176 -0.7418,-0.176 h -1.7711 -0.8854 v 6.576 z m 7.8383,-1.161 m 15.676395,-2.32 h -7.0184 -3.50899 v -1.533 -0.767 h 7.01839 3.509 v 1.534 z m 3.829,-0.533 m 7.658,-1.066 2.804,3.387 1.402,1.693 c 0.334,0.005 0.582,0.087 0.746,0.246 0.167,0.002 0.291,0.043 0.373,0.123 0.17,0.153 0.255,0.352 0.255,0.598 0.084,0.077 0.126,0.176 0.126,0.299 0,0.246 -0.087,0.449 -0.262,0.607 0,0.123 -0.044,0.224 -0.131,0.303 -0.17,0.154 -0.457,0.23 -0.861,0.23 -0.085,0.077 -0.228,0.115 -0.43,0.115 h -1.895 -0.946 c -0.399,0 -0.687,-0.077 -0.862,-0.23 -0.199,0 -0.342,-0.038 -0.43,-0.115 -0.169,-0.158 -0.254,-0.363 -0.254,-0.615 -0.085,-0.079 -0.127,-0.181 -0.127,-0.307 0,-0.235 0.079,-0.429 0.238,-0.582 0,-0.118 0.039,-0.215 0.119,-0.291 0.158,-0.159 0.396,-0.244 0.713,-0.255 0.08,-0.079 0.198,-0.121 0.357,-0.126 l -1.689,-2.083 -0.845,-1.041 -1.705,2.082 -0.853,1.042 c 0.312,0.01 0.547,0.095 0.705,0.254 0.156,0.005 0.274,0.048 0.353,0.127 0.158,0.158 0.238,0.355 0.238,0.59 0.079,0.08 0.118,0.178 0.118,0.295 0,0.246 -0.087,0.449 -0.262,0.607 0,0.123 -0.044,0.224 -0.131,0.303 -0.17,0.153 -0.457,0.23 -0.861,0.23 -0.085,0.077 -0.228,0.115 -0.43,0.115 h -1.886 -0.943 c -0.405,0 -0.695,-0.077 -0.87,-0.23 -0.202,0 -0.346,-0.038 -0.434,-0.115 -0.169,-0.158 -0.254,-0.363 -0.254,-0.615 -0.085,-0.079 -0.127,-0.181 -0.127,-0.307 0,-0.241 0.085,-0.44 0.254,-0.599 0,-0.12 0.043,-0.22 0.127,-0.299 0.17,-0.158 0.418,-0.238 0.746,-0.238 0.085,-0.079 0.209,-0.118 0.373,-0.118 l 2.788,-3.403 1.394,-1.701 -2.657,-3.173 c -0.01,-0.013 -1.328,-1.587 -1.328,-1.587 -0.328,-0.011 -0.574,-0.093 -0.738,-0.246 -0.164,-0.005 -0.287,-0.047 -0.369,-0.123 -0.158,-0.159 -0.237,-0.358 -0.237,-0.598 -0.08,-0.08 -0.119,-0.18 -0.119,-0.3 0,-0.251 0.084,-0.453 0.254,-0.606 0,-0.126 0.042,-0.227 0.127,-0.304 0.175,-0.158 0.465,-0.237 0.869,-0.237 0.087,-0.08 0.232,-0.119 0.435,-0.119 l 1.549,0.008 0.776,0.004 c 0.404,0 0.69,0.077 0.86,0.23 0.202,0 0.346,0.038 0.431,0.115 0.174,0.153 0.262,0.355 0.262,0.606 0.087,0.077 0.131,0.178 0.131,0.303 0,0.186 -0.055,0.356 -0.164,0.509 0,0.093 -0.028,0.178 -0.082,0.254 -0.071,0.093 -0.23,0.205 -0.476,0.336 -0.035,0.047 -0.114,0.103 -0.237,0.168 l 1.566,1.878 0.783,0.938 1.533,-1.877 0.766,-0.939 c -0.246,-0.131 -0.404,-0.243 -0.475,-0.336 -0.123,-0.066 -0.203,-0.122 -0.238,-0.169 -0.109,-0.152 -0.164,-0.322 -0.164,-0.507 -0.055,-0.077 -0.082,-0.162 -0.082,-0.255 0,-0.246 0.085,-0.448 0.254,-0.606 0,-0.123 0.043,-0.225 0.128,-0.304 0.175,-0.158 0.464,-0.237 0.868,-0.237 0.088,-0.08 0.233,-0.119 0.435,-0.119 l 1.541,0.008 0.772,0.004 c 0.404,0 0.691,0.077 0.86,0.23 0.202,0 0.346,0.038 0.431,0.115 0.174,0.153 0.262,0.355 0.262,0.606 0.087,0.077 0.131,0.178 0.131,0.303 0,0.241 -0.085,0.441 -0.254,0.599 0,0.12 -0.043,0.22 -0.127,0.299 -0.164,0.159 -0.405,0.241 -0.722,0.246 -0.082,0.079 -0.202,0.12 -0.36,0.123 l -2.624,3.19"
       style="fill:#aafed6;stroke:#aafed6;stroke-width:0.647;stroke-dasharray:none;stroke-opacity:1;filter:url(#filter12)"
       id="path5" />
    <path
       d="m 25.910616,87.1894 q -0.33206,0.39355 -0.541135,0.50424 -0.196777,0.11068 -0.491942,0.11068 -0.578031,0 -0.934688,-0.38125 -0.344359,-0.39356 -0.344359,-1.29135 v -1.6972 q 0,-0.91009 0.344359,-1.29134 0.356657,-0.39356 0.934688,-0.39356 0.442748,0 0.737913,0.23368 0.307463,0.23367 0.467344,0.7871 0.159881,0.54114 0.33206,0.73792 0.356658,0.38125 1.26675,0.7748 0.910091,0.39356 1.992362,0.39356 1.6849,0 2.767171,-0.78711 0.688718,-0.47964 0.688718,-1.18066 0,-0.46734 -0.332061,-0.8732 -0.33206,-0.41815 -1.082271,-0.68871 -0.491941,-0.18448 -2.201438,-0.50424 -2.066154,-0.38126 -3.123828,-0.92239 -1.057674,-0.54114 -1.672601,-1.52502 -0.614926,-0.98389 -0.614926,-2.12765 0,-1.80788 1.51272,-3.16072 1.512719,-1.36514 3.935531,-1.36514 0.971584,0 1.795586,0.22137 0.836301,0.20908 1.51272,0.65183 0.491941,-0.47965 0.983883,-0.47965 0.553434,0 0.897793,0.39356 0.356657,0.38125 0.356657,1.27904 v 1.89398 q 0,0.91009 -0.356657,1.30364 -0.344359,0.38126 -0.897793,0.38126 -0.467344,0 -0.811703,-0.28287 -0.270568,-0.20907 -0.405852,-0.8363 -0.135284,-0.62722 -0.344359,-0.89779 -0.356658,-0.46735 -1.069973,-0.78711 -0.713315,-0.31976 -1.648004,-0.31976 -1.365137,0 -2.164542,0.63952 -0.787106,0.62723 -0.787106,1.31595 0,0.46734 0.319762,0.91009 0.33206,0.43045 0.959286,0.67642 0.41815,0.17218 2.34902,0.55343 1.943169,0.38126 2.976246,0.8363 1.045375,0.45505 1.734093,1.42663 0.688718,0.97159 0.688718,2.31213 0,1.86937 -1.315943,2.98854 -1.746392,1.47583 -4.45207,1.47583 -1.045376,0 -2.041557,-0.25827 -0.983883,-0.24597 -1.918572,-0.75021 z M 47.46995,81.65505 h -5.386759 v 3.65267 h 0.393553 q 0.910092,0 1.291346,0.35666 0.393554,0.34436 0.393554,0.91009 0,0.55343 -0.393554,0.91009 -0.381254,0.34436 -1.291346,0.34436 h -3.086932 q -0.910092,0 -1.303645,-0.34436 -0.381255,-0.35666 -0.381255,-0.92239 0,-0.68872 0.602629,-1.06997 0.295165,-0.19678 1.25445,-0.18448 v -9.86343 q -0.664121,-0.0615 -1.00848,-0.40585 -0.33206,-0.34436 -0.33206,-0.86089 0,-0.56574 0.381255,-0.9101 0.393553,-0.35665 1.303644,-0.35665 l 2.570394,0.0123 q 0.910092,0 1.291346,0.34436 0.393554,0.34436 0.393554,0.9101 0,0.56573 -0.393554,0.92239 -0.381254,0.34435 -1.291346,0.34435 h -0.393553 v 3.68957 H 47.46995 V 75.4443 h -0.393553 q -0.910092,0 -1.303645,-0.34435 -0.381255,-0.35666 -0.381255,-0.92239 0,-0.56574 0.381255,-0.9101 0.393553,-0.35665 1.303645,-0.35665 l 2.570393,0.0123 q 0.910092,0 1.291347,0.34436 0.393553,0.34436 0.393553,0.9101 0,0.51653 -0.344359,0.86089 -0.332061,0.34436 -0.996182,0.40585 v 9.86343 q 0.971585,0 1.254451,0.18448 0.602628,0.38125 0.602628,1.08227 0,0.55343 -0.393553,0.91009 -0.381254,0.34436 -1.291346,0.34436 h -3.086932 q -0.910092,0 -1.303645,-0.34436 -0.381255,-0.35666 -0.381255,-0.92239 0,-0.55343 0.393553,-0.89779 0.393553,-0.35666 1.291347,-0.35666 h 0.393553 z m 9.752739,0.47965 v 3.17302 h 0.910091 q 0.910092,0 1.291347,0.35666 0.393553,0.34436 0.393553,0.91009 0,0.55343 -0.393553,0.91009 -0.381255,0.34436 -1.291347,0.34436 h -3.824844 q -0.910092,0 -1.303645,-0.34436 -0.381255,-0.35666 -0.381255,-0.92239 0,-0.55343 0.393554,-0.89779 0.393553,-0.35666 1.291346,-0.35666 h 0.393553 v -9.86343 h -0.393553 q -0.910092,0 -1.303645,-0.34435 -0.381255,-0.35666 -0.381255,-0.92239 0,-0.56574 0.381255,-0.9101 0.393553,-0.35665 1.303645,-0.35665 l 5.70652,0.0123 q 2.668783,0 4.132308,1.32825 1.475825,1.31594 1.475825,3.20991 0,1.18066 -0.688718,2.15225 -0.688718,0.95928 -2.078453,1.70949 0.799405,0.70102 1.709496,1.79559 0.565733,0.70102 1.525019,2.18914 0.959286,0 1.266749,0.19678 0.553434,0.38125 0.553434,1.06997 0,0.55343 -0.381254,0.91009 -0.381255,0.34436 -1.291347,0.34436 h -1.438928 q -3.062336,-4.73494 -5.079296,-5.69422 z m 0,-2.5212 h 1.967765 q 1.09457,0 1.955468,-0.33206 1.156062,-0.44275 1.549615,-0.93469 0.405852,-0.49194 0.405852,-0.97159 0,-0.71331 -0.762509,-1.31594 -0.76251,-0.61493 -2.226035,-0.61493 h -2.890156 z m 15.127201,1.99236 v 3.70186 h 6.432134 v -1.36514 q 0,-0.91009 0.344359,-1.29134 0.356657,-0.39356 0.92239,-0.39356 0.553434,0 0.897793,0.39356 0.356658,0.38125 0.356658,1.29134 v 3.88634 H 69.435137 q -0.910092,0 -1.303645,-0.34436 -0.381255,-0.35666 -0.381255,-0.92239 0,-0.55343 0.393554,-0.89779 0.393553,-0.35666 1.291346,-0.35666 h 0.393553 v -9.86343 h -0.393553 q -0.910092,0 -1.303645,-0.34435 -0.381255,-0.35666 -0.381255,-0.92239 0,-0.56574 0.381255,-0.9101 0.393553,-0.35665 1.303645,-0.35665 l 11.314653,0.0123 v 3.83715 q 0,0.89779 -0.344359,1.29134 -0.344359,0.38126 -0.910092,0.38126 -0.565733,0 -0.92239,-0.38126 Q 78.22859,77.67034 78.22859,76.76025 V 75.4443 h -5.8787 v 3.64037 h 2.213736 q 0,-0.98388 0.184478,-1.26675 0.381255,-0.60263 1.082271,-0.60263 0.553434,0 0.897793,0.39356 0.356658,0.38125 0.356658,1.29134 v 2.90246 q 0,0.824 -0.196777,1.10687 -0.393553,0.57803 -1.057674,0.57803 -0.701016,0 -1.082271,-0.60263 -0.184478,-0.28287 -0.184478,-1.27905 z m 12.064862,3.70186 v -9.86343 q -0.799405,-0.0123 -1.18066,-0.35665 -0.381254,-0.35666 -0.381254,-0.91009 0,-0.56574 0.381254,-0.9101 0.393553,-0.35665 1.303645,-0.35665 l 5.276072,0.0123 q 1.229853,0 2.398214,0.45505 1.18066,0.45505 1.893975,1.15606 0.541135,0.52884 1.119166,1.45123 0.59033,0.92239 0.885495,1.83248 0.295165,0.91009 0.295165,2.22604 v 1.20525 q 0,1.59881 -0.541136,2.84096 -0.541135,1.22986 -1.42663,2.01696 -0.873196,0.77481 -1.648004,1.14377 -1.229853,0.57803 -3.18532,0.57803 h -5.066997 q -0.910092,0 -1.303645,-0.34436 -0.381254,-0.35666 -0.381254,-0.92239 0,-0.55343 0.381254,-0.91009 0.393553,-0.35666 1.18066,-0.34436 z m 2.521199,0 h 2.681081 q 1.500422,0 2.262931,-0.43045 0.996181,-0.56573 1.500421,-1.43893 0.50424,-0.87319 0.50424,-2.26293 v -1.19296 q 0,-1.19295 -0.455046,-2.09075 -0.713315,-1.40203 -1.611108,-1.91857 -0.885495,-0.52884 -2.226035,-0.52884 H 86.935951 Z M 110.45074,81.82723 H 99.9232 v -2.29982 h 10.52754 z m 11.48684,-1.59881 4.2061,5.0793 q 0.75021,0.0123 1.11917,0.36896 0.38125,0.34436 0.38125,0.89779 0,0.55343 -0.39355,0.91009 -0.38125,0.34436 -1.29135,0.34436 h -2.84096 q -0.89779,0 -1.29134,-0.34436 -0.38126,-0.35666 -0.38126,-0.92239 0,-0.52884 0.35666,-0.8732 0.35666,-0.35665 1.06997,-0.38125 l -2.5335,-3.12383 -2.55809,3.12383 q 0.70101,0.0246 1.05767,0.38125 0.35666,0.35666 0.35666,0.8855 0,0.55343 -0.39355,0.91009 -0.38126,0.34436 -1.29135,0.34436 h -2.82866 q -0.91009,0 -1.30365,-0.34436 -0.38125,-0.35666 -0.38125,-0.92239 0,-0.54113 0.38125,-0.89779 0.38126,-0.35666 1.11917,-0.35666 l 4.1815,-5.10389 -3.98472,-4.75954 q -0.73792,-0.0246 -1.10687,-0.36895 -0.35666,-0.35666 -0.35666,-0.89779 0,-0.56574 0.38125,-0.9101 0.39356,-0.35665 1.30365,-0.35665 l 2.32442,0.0123 q 0.91009,0 1.29135,0.34436 0.39355,0.34436 0.39355,0.9101 0,0.41815 -0.24597,0.7625 -0.15988,0.20908 -0.71331,0.50424 l 2.34902,2.81637 2.29982,-2.81637 q -0.55343,-0.29516 -0.71331,-0.50424 -0.24597,-0.34435 -0.24597,-0.7625 0,-0.55344 0.38125,-0.9101 0.39355,-0.35665 1.30365,-0.35665 l 2.31212,0.0123 q 0.91009,0 1.29135,0.34436 0.39355,0.34436 0.39355,0.9101 0,0.54113 -0.38125,0.89779 -0.36896,0.35666 -1.08228,0.36895 z"
       id="text1-2"
       style="font-weight:bold;font-size:25.1874px;font-family:'Courier New';-inkscape-font-specification:'Courier New Bold';text-align:center;text-anchor:middle;fill:#ffffff;stroke:none;stroke-width:1.847;stroke-dasharray:none;stroke-opacity:1"
       aria-label="SHRED-X" />
    <g
       id="layer1-6-8"
       transform="matrix(0.26458333,0,0,0.26458333,7.444463,52.035024)" />
  </g>
  <g
     inkscape:groupmode="layer"
     id="layer2"
     inkscape:label="old_logo"
     transform="translate(3.9449977,3.9450034)"
     style="display:none">
    <path
       style="fill:none;stroke:#000000;stroke-width:2.231;stroke-linecap:butt;stroke-linejoin:miter;stroke-miterlimit:4;stroke-dasharray:none;stroke-opacity:1"
       d="m 4.788947,108.31536 c 1.12749,-13.229168 6.909487,-41.005284 9.555327,-41.005284 5.29166,0 8.647497,40.384424 13.939167,40.384424 5.29167,0 6.717162,-16.398424 12.008832,-16.398424 5.29167,0 7.988791,12.391594 13.280461,12.391594 5.29166,0 6.457773,-10.865969 11.779503,-10.865969 5.2616,0 8.112618,9.533459 13.404288,9.533459 5.29166,0 7.856163,-7.552165 13.147831,-7.552165 5.291675,0 7.659795,6.661165 12.951464,6.661165 5.29166,0 6.68451,-6.79839 11.97587,-6.742102 5.81981,0.06191 3.80016,5.906362 13.07822,5.837132"
       id="path2822-4"
       sodipodi:nodetypes="csssssssssc"
       transform="translate(-3.6774763,-66.194575)" />
    <text
       xml:space="preserve"
       style="font-weight:bold;font-size:25.1874px;font-family:'Courier New';-inkscape-font-specification:'Courier New Bold';text-align:center;writing-mode:lr-tb;direction:ltr;text-anchor:middle;fill:#000000;stroke-width:0.0470001"
       x="74.938728"
       y="87.828918"
       id="text1"
       transform="translate(-3.6774763,-66.194575)"
       sodipodi:insensitive="true"><tspan
         sodipodi:role="line"
         id="tspan1"
         style="fill:#000000;stroke-width:0.0470001"
         x="74.938728"
         y="87.828918">SHRED-X</tspan></text>
  </g>
</svg>
